<svg xmlns="http://www.w3.org/2000/svg" viewBox="0 0 51.823 50.834">
  <defs>
    <style>
      .cls-1 {
        fill: #ffffff;
      }
    </style>
  </defs>
  <path id="Shape_14" data-name="Shape 14" class="cls-1" d="M326.39,326.917a1.071,1.071,0,0,1-.233-.027c-4.54-1.093-7.964-5.783-7.964-10.911a11.024,11.024,0,0,1,9.039-10.786c-.027-.305-.04-.6-.04-.9a10.959,10.959,0,0,1,20.722-5,14.723,14.723,0,1,1,7.271,27.621Zm2.8-22.622a8.908,8.908,0,0,0,.15,1.584,1,1,0,0,1-.9,1.174,9.006,9.006,0,0,0-8.246,8.927c0,4.117,2.768,8.017,6.323,8.938h28.67a12.72,12.72,0,1,0-7.174-23.348,1,1,0,0,1-1.481-.478,8.964,8.964,0,0,0-17.341,3.2Zm-6.713-.908a14.576,14.576,0,1,1,27.482-9.728,1,1,0,1,1-1.882.668,12.579,12.579,0,1,0-23.717,8.4A1,1,0,0,1,323.75,304a.983.983,0,0,1-.333.058A1,1,0,0,1,322.475,303.386Zm-.012-13.8-3.986-1.907a1,1,0,0,1,.862-1.805l3.986,1.908a1,1,0,0,1-.862,1.8Zm18.1-6.408a1,1,0,0,1-.472-1.333L342,277.854a1,1,0,1,1,1.8.861L341.9,282.71a1,1,0,0,1-.9.57A.985.985,0,0,1,340.566,283.181ZM329.9,282.132l-1.666-4.715a1,1,0,1,1,1.883-.668l1.666,4.715a1,1,0,0,1-.607,1.276,1.011,1.011,0,0,1-.334.058A1,1,0,0,1,329.9,282.132Z" transform="translate(-317.91 -276.083)"/>
</svg>
