<svg xmlns="http://www.w3.org/2000/svg" viewBox="0 0 57.954 56.973">
  <defs>
    <style>
      .cls-1 {
        fill: #ffffff;
      }
    </style>
  </defs>
  <path id="Shape_19" data-name="Shape 19" class="cls-1" d="M239.365,329.532a102.921,102.921,0,0,0-34.878-33.064,1,1,0,0,1,.99-1.734,104.914,104.914,0,0,1,35.556,33.708,1,1,0,1,1-1.669,1.091Zm8.922-1.16a102.694,102.694,0,0,0-43.079-40.712,1,1,0,0,1,.887-1.789,104.694,104.694,0,0,1,43.919,41.506,1,1,0,0,1-.368,1.363.994.994,0,0,1-1.359-.369Zm-3.577-12.517a1,1,0,0,1,0-1.413A17.257,17.257,0,1,0,220.346,290a1,1,0,0,1-1.408-1.412,19.251,19.251,0,1,1,27.178,27.272.993.993,0,0,1-1.408,0Zm9.267-12.875a1,1,0,0,1,0-2h6.969a1,1,0,0,1,0,2Zm-6.94-14.66a1,1,0,0,1,0-1.412l4.928-4.944a1,1,0,0,1,1.408,1.412l-4.928,4.944a.991.991,0,0,1-1.408,0ZM231.079,281v-6.992a1,1,0,1,1,1.991,0V281a1,1,0,1,1-1.991,0Z" transform="translate(-203.986 -273.013)"/>
</svg>
