<svg xmlns="http://www.w3.org/2000/svg" viewBox="0 0 43.996 53.998">
  <defs>
    <style>
      .cls-1 {
        fill: #ffffff;
      }
    </style>
  </defs>
  <path id="Shape_13" data-name="Shape 13" class="cls-1" d="M568.171,203.738l7.671-3.874-3.885,7.648-4.273.487Zm-17.049,0,7.672-3.874-3.886,7.648-4.272.487Zm29.083-14,7.672-3.874-3.886,7.649-4.272.486Zm-17.049,0,7.672-3.874-3.886,7.649-4.272.486Zm-17.048,0,7.671-3.874-3.886,7.649L545.62,194Zm11.38-6.831a12.7,12.7,0,1,1,6.1-23.924,9.456,9.456,0,0,1,17.787,4.455c0,.218-.008.439-.024.662A9.519,9.519,0,0,1,589,173.395a9.989,9.989,0,0,1-6.829,9.473.972.972,0,0,1-.275.039Zm-10.481-12.7a10.6,10.6,0,0,0,10.481,10.7h24.26a7.951,7.951,0,0,0,5.242-7.511,7.492,7.492,0,0,0-6.844-7.442,1,1,0,0,1-.907-1.174,7.564,7.564,0,0,0,.125-1.34,7.447,7.447,0,0,0-14.395-2.671,1,1,0,0,1-1.487.479,10.64,10.64,0,0,0-16.475,8.963Z" transform="translate(-545.002 -154.001)"/>
</svg>
