<svg xmlns="http://www.w3.org/2000/svg" viewBox="0 0 47.982 50.979">
  <defs>
    <style>
      .cls-1 {
        fill: #ffffff;
      }
    </style>
  </defs>
  <path id="Shape_16" data-name="Shape 16" class="cls-1" d="M449.067,206.854a1.009,1.009,0,0,1-.369-1.376l5.06-8.777-6.071-.176a1.008,1.008,0,0,1-.887-1.425l8.15-17.944a1.007,1.007,0,1,1,1.832.834l-7.522,16.564,6.242.181a1.008,1.008,0,0,1,.842,1.511l-5.9,10.238a1.006,1.006,0,0,1-1.375.369Zm11.695-2.507a1.008,1.008,0,0,1-.487-1.339l3.43-7.358H458.96a1.007,1.007,0,0,1-.913-1.431l2.236-4.829a1.007,1.007,0,1,1,1.826.848l-1.574,3.4h4.75a1.007,1.007,0,0,1,.912,1.433l-4.1,8.791a1.008,1.008,0,0,1-1.337.488Zm-4.536-16.756a1.008,1.008,0,0,1,0-2.015h15.935a8.83,8.83,0,0,0,5.817-8.347,8.312,8.312,0,0,0-7.576-8.267,1.008,1.008,0,0,1-.91-1.184,8.554,8.554,0,0,0,.138-1.488,8.24,8.24,0,0,0-15.936-2.966,1.006,1.006,0,0,1-1.492.482,11.679,11.679,0,0,0-6.435-1.93,11.853,11.853,0,0,0-.177,23.7h1.579a1.008,1.008,0,0,1,0,2.015h-1.579a13.866,13.866,0,1,1,6.711-26.073,10.167,10.167,0,0,1,9.086-5.507,10.28,10.28,0,0,1,10.257,10.279c0,.26-.012.53-.034.8a10.354,10.354,0,0,1,8.383,10.137c0,4.681-3.185,9.119-7.41,10.323a1.013,1.013,0,0,1-.275.039Z" transform="translate(-432.009 -156.01)"/>
</svg>
