<svg xmlns="http://www.w3.org/2000/svg" viewBox="0 0 58.925 59">
  <defs>
    <style>
      .cls-1 {
        fill: #ffffff;
      }
    </style>
  </defs>
  <path id="Shape_1" data-name="Shape 1" class="cls-1" d="M565.04,330v-7a1,1,0,1,1,2,0v7a1,1,0,1,1-2,0Zm20.419-7.64-4.944-4.95a1,1,0,1,1,1.412-1.415l4.944,4.95a1,1,0,0,1-.706,1.707A.992.992,0,0,1,585.459,322.359Zm-40.253,0a1,1,0,0,1,0-1.415L550.148,316a1,1,0,0,1,1.412,1.414l-4.943,4.95a1,1,0,0,1-1.412,0Zm1.583-21.216a19.28,19.28,0,1,1,19.28,19.3A19.315,19.315,0,0,1,546.789,301.144Zm2,0a17.283,17.283,0,1,0,17.283-17.305A17.313,17.313,0,0,0,548.786,301.144ZM588.01,303a1,1,0,0,1,0-2H595a1,1,0,0,1,0,2Zm-49.936,0a1,1,0,0,1,0-2h6.991a1,1,0,0,1,0,2ZM580.514,287a1,1,0,0,1,0-1.415l4.945-4.95a1,1,0,0,1,1.412,1.415L581.927,287a1,1,0,0,1-1.413,0Zm-30.366,0-4.943-4.949a1,1,0,1,1,1.412-1.415l4.944,4.95A1,1,0,1,1,550.148,287Zm14.891-7v-7a1,1,0,1,1,2,0v7a1,1,0,1,1-2,0Z" transform="translate(-537.075 -272)"/>
</svg>
