<svg xmlns="http://www.w3.org/2000/svg" viewBox="0 0 47.987 40.973">
  <defs>
    <style>
      .cls-1 {
        fill: #ffffff;
      }
    </style>
  </defs>
  <path id="Shape_24" data-name="Shape 24" class="cls-1" d="M330.144,439.987a.991.991,0,1,1,0-1.982h22.144a.991.991,0,1,1,0,1.982Zm0-4.954a.991.991,0,1,1,0-1.983h22.144a.991.991,0,1,1,0,1.983Zm27.2-5.675a.989.989,0,0,1,.693-1.224,8.671,8.671,0,0,0,5.94-8.248,8.233,8.233,0,0,0-7.58-8.133,1.007,1.007,0,0,1-.717-.383.983.983,0,0,1-.193-.78,8.245,8.245,0,0,0-15.8-4.381,1,1,0,0,1-.631.588,1.016,1.016,0,0,1-.861-.115,11.77,11.77,0,0,0-18.178,9.762,11.526,11.526,0,0,0,.909,4.5.985.985,0,0,1-.544,1.3,1.014,1.014,0,0,1-1.315-.536,13.48,13.48,0,0,1-1.063-5.255A13.716,13.716,0,0,1,331.763,402.8a13.861,13.861,0,0,1,6.537,1.633,10.344,10.344,0,0,1,9.084-5.418,10.2,10.2,0,0,1,10.258,10.111c0,.257-.011.522-.033.79a10.231,10.231,0,0,1,8.385,9.971,10.714,10.714,0,0,1-7.4,10.154,1.012,1.012,0,0,1-1.243-.682Zm-25.151.72a7.266,7.266,0,0,1-7.085-7.247,6.68,6.68,0,0,1,2.1-4.893,7.238,7.238,0,0,1,5.021-1.965.991.991,0,1,1,0,1.982,5.217,5.217,0,0,0-3.622,1.409,4.741,4.741,0,0,0-1.481,3.467,5.244,5.244,0,0,0,5.072,5.266h20.092a.991.991,0,1,1,0,1.982Z" transform="translate(-318.006 -399.013)"/>
</svg>
