<svg xmlns="http://www.w3.org/2000/svg" viewBox="0 0 45.605 48.76">
  <defs>
    <style>
      .cls-1 {
        fill: #ffffff;
      }
    </style>
  </defs>
  <path id="Shape_4" data-name="Shape 4" class="cls-1" d="M545.2,419.6a24.314,24.314,0,0,1,12.458-21.2,1,1,0,0,1,1.36,1.361,22.274,22.274,0,0,0,30.3,30.3,1,1,0,0,1,1.36,1.362A24.274,24.274,0,0,1,545.2,419.6Zm2,0a22.272,22.272,0,0,0,39.817,13.722,24.274,24.274,0,0,1-31.263-31.265A22.306,22.306,0,0,0,547.2,419.6Zm39.272-.494a1.99,1.99,0,1,1,1.99,1.99A1.99,1.99,0,0,1,586.47,419.11Zm-15-2a1.99,1.99,0,1,1,1.99,1.99A1.99,1.99,0,0,1,571.47,417.11Zm9-9a1.99,1.99,0,1,1,1.99,1.99A1.99,1.99,0,0,1,580.47,408.11Zm-16-3a1.99,1.99,0,1,1,1.99,1.99A1.99,1.99,0,0,1,564.47,405.11Zm22-5a1.99,1.99,0,1,1,1.99,1.99A1.989,1.989,0,0,1,586.47,400.11Zm-10-3a1.99,1.99,0,1,1,1.99,1.99A1.99,1.99,0,0,1,576.47,397.11Z" transform="translate(-545.198 -395.12)"/>
</svg>
