<svg xmlns="http://www.w3.org/2000/svg" viewBox="0 0 43.996 47.999">
  <defs>
    <style>
      .cls-1 {
        fill: #ffffff;
      }
    </style>
  </defs>
  <path id="Shape_12" data-name="Shape 12" class="cls-1" d="M349.76,204.184a2.8,2.8,0,0,1,0-3.937c1.078-1.087,5.311-1.416,5.311-1.416s-.327,4.265-1.4,5.352a2.747,2.747,0,0,1-3.906,0Zm-15.043,0a2.8,2.8,0,0,1,0-3.937c1.078-1.087,5.311-1.416,5.311-1.416s-.327,4.265-1.4,5.352a2.747,2.747,0,0,1-3.906,0Zm21.059-10.105a2.8,2.8,0,0,1,0-3.937c1.079-1.087,5.312-1.416,5.312-1.416s-.327,4.264-1.4,5.352a2.748,2.748,0,0,1-3.907,0Zm-14.04,0a2.8,2.8,0,0,1,0-3.937c1.079-1.087,5.312-1.416,5.312-1.416s-.327,4.264-1.4,5.352a2.748,2.748,0,0,1-3.907,0Zm-15.043,0a2.8,2.8,0,0,1,0-3.937c1.079-1.087,5.312-1.416,5.312-1.416s-.327,4.264-1.406,5.352a2.747,2.747,0,0,1-3.906,0Zm32.586-7.861-24.793-.124a12.768,12.768,0,0,1,.165-25.533,12.51,12.51,0,0,1,5.935,1.485,9.434,9.434,0,0,1,17.784,4.478c0,.214-.007.428-.023.645a9.557,9.557,0,0,1,7.65,9.343c0,4.511-2.647,8.5-6.437,9.6-.091.026-.185.105-.279.105ZM324.008,173.29A10.725,10.725,0,0,0,334.5,184.007l24.632.059c2.867-.91,4.856-3.993,4.856-7.555a7.512,7.512,0,0,0-6.845-7.472,1,1,0,0,1-.715-.391,1.019,1.019,0,0,1-.192-.8,7.439,7.439,0,0,0-14.27-4.012,1,1,0,0,1-1.487.484,10.54,10.54,0,0,0-5.832-1.759A10.7,10.7,0,0,0,324.008,173.29Z" transform="translate(-322.002 -157)"/>
</svg>
