<svg xmlns="http://www.w3.org/2000/svg" viewBox="0 0 59.996 41.98">
  <defs>
    <style>
      .cls-1 {
        fill: #ffffff;
      }
    </style>
  </defs>
  <path id="Shape_11" data-name="Shape 11" class="cls-1" d="M241.251,201.99l-24.774-.123a12.653,12.653,0,1,1,3.589-24.838q-.03-.435-.03-.871a12.636,12.636,0,0,1,18.571-11.152,9.441,9.441,0,0,1,17.771,4.443c0,.212-.007.426-.023.641A9.491,9.491,0,0,1,264,179.35c0,4.469-2.645,8.421-6.432,9.516-.091.025-.185.1-.278.1h0l-9.994-.079a9.306,9.306,0,0,1,.674,3.479c0,4.47-2.645,8.421-6.432,9.516-.091.025-.184.1-.278.1Zm-35.245-12.813A10.671,10.671,0,0,0,216.493,199.8l24.614.058c2.864-.9,4.853-3.957,4.853-7.487a7.356,7.356,0,0,0-1.022-3.737.918.918,0,0,1-.285-.447,7.449,7.449,0,0,0-5.534-3.221,1,1,0,0,1-.905-1.176,7.4,7.4,0,0,0-7.316-8.755,7.482,7.482,0,0,0-6.943,4.779,1,1,0,0,1-1.486.48,10.63,10.63,0,0,0-16.463,8.886Zm34.338-6.706c0,.212-.008.425-.024.64a9.483,9.483,0,0,1,5.921,3.854l10.9-.049c2.864-.9,4.853-4,4.853-7.526a7.489,7.489,0,0,0-6.84-7.426,1.018,1.018,0,0,1-.905-1.192,7.4,7.4,0,0,0-7.316-8.759,7.482,7.482,0,0,0-6.944,4.78,1,1,0,0,1-1.486.478,10.63,10.63,0,0,0-16.463,8.887,10.747,10.747,0,0,0,.13,1.67q.2.1.4.205a9.44,9.44,0,0,1,17.77,4.437Z" transform="translate(-204.002 -160.009)"/>
</svg>
