<svg xmlns="http://www.w3.org/2000/svg" viewBox="0 0 49.99 52.749">
  <defs>
    <style>
      .cls-1 {
        fill: #ffffff;
      }
    </style>
  </defs>
  <path id="Shape_22" data-name="Shape 22" class="cls-1" d="M240.826,447.582,214.663,421.42A1,1,0,1,1,216.077,420l26.163,26.163a1,1,0,0,1-1.414,1.414Zm-6.365-13.434L208.3,407.984a1,1,0,0,1,1.414-1.414l26.164,26.164a1,1,0,1,1-1.415,1.414Zm.707-9.193a1,1,0,0,1,0-1.415l10.651-10.65a7.3,7.3,0,0,1,10.179.226,6.73,6.73,0,0,1,1.994,4.981,7.221,7.221,0,0,1-2.151,4.931,1,1,0,0,1-1.414-1.414,5.235,5.235,0,0,0,1.566-3.568,4.752,4.752,0,0,0-1.408-3.514,5.279,5.279,0,0,0-7.352-.228l-10.65,10.651a1,1,0,0,1-1.415,0Zm-3.535-3.535a1,1,0,0,1,0-1.415l12.02-12.021a1,1,0,0,1,1.414,1.415l-12.02,12.021a1,1,0,0,1-1.414,0Zm-3.535-3.537a1,1,0,0,1,0-1.414l10.65-10.65a5.207,5.207,0,0,0-.137-7.261,4.742,4.742,0,0,0-3.545-1.432,5.191,5.191,0,0,0-3.583,1.543,1,1,0,0,1-1.414-1.414,7.177,7.177,0,0,1,4.961-2.129,6.843,6.843,0,0,1,5,2.018,7.144,7.144,0,0,1,.136,10.089l-10.65,10.65a1,1,0,0,1-1.414,0Z" transform="translate(-208.005 -395.125)"/>
</svg>
