<svg xmlns="http://www.w3.org/2000/svg" viewBox="0 0 48.057 33.626">
  <defs>
    <style>
      .cls-1 {
        fill: #ffffff;
      }
    </style>
  </defs>
  <path id="Shape_11" data-name="Shape 11" class="cls-1" d="M233.839,193.636l-19.844-.1a10.135,10.135,0,1,1,2.874-19.9q-.024-.348-.024-.7a10.121,10.121,0,0,1,14.875-8.933,7.562,7.562,0,0,1,14.234,3.559c0,.17-.006.341-.019.513a7.6,7.6,0,0,1,6.123,7.417c0,3.579-2.119,6.746-5.152,7.622-.073.02-.148.084-.223.084h0l-8.006-.064a7.454,7.454,0,0,1,.54,2.786c0,3.581-2.119,6.746-5.152,7.622-.073.02-.148.084-.223.084Zm-28.231-10.264a8.548,8.548,0,0,0,8.4,8.508l19.716.046a6.108,6.108,0,0,0,3.887-6,5.893,5.893,0,0,0-.818-2.993.735.735,0,0,1-.228-.358,5.967,5.967,0,0,0-4.432-2.58.8.8,0,0,1-.725-.942,5.927,5.927,0,0,0-5.86-7.013,5.993,5.993,0,0,0-5.562,3.828.8.8,0,0,1-1.19.384,8.515,8.515,0,0,0-13.187,7.117Zm27.5-5.371c0,.17-.006.34-.019.513a7.6,7.6,0,0,1,4.743,3.087l8.731-.039a6.151,6.151,0,0,0,3.887-6.028,6,6,0,0,0-5.479-5.948.816.816,0,0,1-.725-.954,5.93,5.93,0,0,0-5.86-7.016,5.993,5.993,0,0,0-5.562,3.829.8.8,0,0,1-1.19.383,8.515,8.515,0,0,0-13.187,7.118,8.609,8.609,0,0,0,.1,1.338q.163.079.323.164A7.561,7.561,0,0,1,233.112,178Z" transform="translate(-204.002 -160.009)"/>
</svg>
