<svg xmlns="http://www.w3.org/2000/svg" viewBox="0 0 59 45.019">
  <defs>
    <style>
      .cls-1 {
        fill: #ffffff;
      }
    </style>
  </defs>
  <path id="Shape_25" data-name="Shape 25" class="cls-1" d="M428,440.009a1.011,1.011,0,0,1,0-2.022h57a1.011,1.011,0,0,1,0,2.022Zm19.085-12.25a10.316,10.316,0,0,1-9.5,6.258,10.612,10.612,0,0,1-10.3-10.636,1,1,0,1,1,2,0,8.574,8.574,0,0,0,8.3,8.614,8.241,8.241,0,0,0,8.3-8.165,1,1,0,0,1,1-1.012h.407a1,1,0,0,1,1,1.012,8.241,8.241,0,0,0,8.3,8.165,8.411,8.411,0,0,0,8.3-8.5,1.01,1.01,0,0,1,.735-.976l.407-.113a1,1,0,0,1,.871.172,1.017,1.017,0,0,1,.393.8,8.3,8.3,0,1,0,16.593,0,1,1,0,1,1,2,0,10.28,10.28,0,0,1-19.765,4.093,10.276,10.276,0,0,1-19.032.285Zm17.131-21.841a2.734,2.734,0,0,1,3.9,0,2.809,2.809,0,0,1,0,3.94c-1.076,1.088-5.3,1.417-5.3,1.417S463.138,407.007,464.215,405.918Zm-15,0a2.734,2.734,0,0,1,3.9,0,2.809,2.809,0,0,1,0,3.94c-1.076,1.088-5.3,1.417-5.3,1.417S448.139,407.007,449.214,405.918Zm21-10.111a2.731,2.731,0,0,1,3.894,0,2.805,2.805,0,0,1,0,3.938c-1.076,1.089-5.3,1.418-5.3,1.418S469.139,396.895,470.215,395.807Zm-14,0a2.732,2.732,0,0,1,3.9,0,2.807,2.807,0,0,1,0,3.938c-1.076,1.089-5.3,1.418-5.3,1.418S455.139,396.895,456.215,395.807Zm-15,0a2.731,2.731,0,0,1,3.894,0,2.805,2.805,0,0,1,0,3.938c-1.076,1.089-5.3,1.418-5.3,1.418S440.139,396.895,441.215,395.807Z" transform="translate(-427 -394.99)"/>
</svg>
