<svg xmlns="http://www.w3.org/2000/svg" viewBox="0 0 45.989 52.618">
  <defs>
    <style>
      .cls-1 {
        fill: #ffffff;
      }
    </style>
  </defs>
  <g id="snowflake" transform="translate(-44.115)">
    <path id="Path_53" data-name="Path 53" class="cls-1" d="M89.308,37.258l-5.682-3.283,4.8-2.857a1.558,1.558,0,0,0,.571-2.168,1.538,1.538,0,0,0-2.141-.518l-6.4,3.746L70.294,26.264,80.458,20.41l6.4,3.74a1.25,1.25,0,0,0,.743.231,1.733,1.733,0,0,0,1.4-.743,1.564,1.564,0,0,0-.571-2.168l-4.8-2.857,5.682-3.283a1.6,1.6,0,0,0,.571-2.168,1.576,1.576,0,0,0-2.17-.573L82,15.9l-.085-5.713a1.579,1.579,0,0,0-1.57-1.6,1.6,1.6,0,0,0-1.57,1.6l.057,7.54L68.723,23.584V11.707l6.367-3.63a1.609,1.609,0,0,0,.628-2.168,1.533,1.533,0,0,0-2.141-.573L68.723,8.076V1.6a1.6,1.6,0,0,0-1.6-1.6,1.571,1.571,0,0,0-1.57,1.6V8.137l-5.025-2.8a1.519,1.519,0,0,0-2.113.573,1.573,1.573,0,0,0,.6,2.168l6.539,3.685V23.523L55.219,17.56l.057-7.37a1.527,1.527,0,0,0-1.542-1.6h-.057a1.614,1.614,0,0,0-1.57,1.6l-.057,5.543-5.567-3.2a1.538,1.538,0,0,0-2.142.566,1.585,1.585,0,0,0,.571,2.174l5.624,3.252L45.626,21.47a1.526,1.526,0,0,0-.542,2.168,1.47,1.47,0,0,0,1.342.743,1.541,1.541,0,0,0,.828-.231l6.424-3.795,10.307,5.908L53.677,32.233l-6.424-3.8a1.553,1.553,0,0,0-2.17.518,1.6,1.6,0,0,0,.542,2.168l4.911,2.911-5.624,3.283a1.565,1.565,0,0,0-.571,2.174,1.457,1.457,0,0,0,1.342.8,2.862,2.862,0,0,0,.8-.231l5.567-3.2.057,5.543a1.587,1.587,0,0,0,1.57,1.565h.057a1.565,1.565,0,0,0,1.542-1.626l-.057-7.364,10.335-5.908v11.7l-6.539,3.685a1.559,1.559,0,0,0-.6,2.168,1.451,1.451,0,0,0,1.342.8,1.527,1.527,0,0,0,.771-.177L65.554,44.4v6.651a1.55,1.55,0,0,0,1.57,1.571,1.574,1.574,0,0,0,1.6-1.571V44.505l4.853,2.741a1.628,1.628,0,0,0,2.141-.627,1.586,1.586,0,0,0-.628-2.168l-6.367-3.569V29L78.83,34.858l-.057,7.48a1.588,1.588,0,0,0,1.57,1.626,1.553,1.553,0,0,0,1.57-1.565L82,36.655,87.709,40a1.675,1.675,0,0,0,.828.171,1.47,1.47,0,0,0,1.342-.743A1.571,1.571,0,0,0,89.308,37.258Z"/>
  </g>
</svg>
