<svg xmlns="http://www.w3.org/2000/svg" viewBox="0 0 56.927 38">
  <defs>
    <style>
      .cls-1 {
        fill: #ffffff;
      }
    </style>
  </defs>
  <path id="Shape_6" data-name="Shape 6" class="cls-1" d="M427.714,320a1,1,0,0,1,0-2h54.931a1,1,0,0,1,0,2Zm0-4a1,1,0,0,1,0-2h54.931a1,1,0,0,1,0,2Zm45.278-4.855a17.283,17.283,0,1,0-34.565,0,1,1,0,1,1-2,0,19.281,19.281,0,1,1,38.561,0,1,1,0,1,1-2,0ZM470.156,297a1,1,0,0,1,0-1.415l4.944-4.949a1,1,0,0,1,1.412,1.414L471.568,297a1,1,0,0,1-1.412,0Zm-30.366,0-4.944-4.949a1,1,0,0,1,1.413-1.414l4.943,4.949A1,1,0,1,1,439.79,297Zm14.891-7v-7a1,1,0,1,1,2,0v7a1,1,0,1,1-2,0Z" transform="translate(-426.716 -282)"/>
</svg>
